<svg width="400" height="200" viewBox="0 0 1200 700" xmlns="http://www.w3.org/2000/svg">
  <defs>
    <linearGradient spreadMethod="pad" id="J_gradient" x1="10%" y1="93%" x2="10%" y2="10%">
        <stop offset="0%" style="stop-color:rgb(152, 193, 217);stop-opacity:1;" />
        <stop offset="46%" style="stop-color:rgb(41, 50, 65);stop-opacity:1;" />
        <stop offset="47%" style="stop-color:rgb(224, 251, 252);stop-opacity:1;" />
        <stop offset="100%" style="stop-color:rgb(238, 108, 77);stop-opacity:1;" />
    </linearGradient>
    <linearGradient spreadMethod="pad" id="s_gradient" x1="0%" y1="100%" x2="0%" y2="0%">
        <stop offset="0%" style="stop-color:rgb(61, 90, 128);stop-opacity:1;" />
        <stop offset="37%" style="stop-color:rgb(152, 193, 217);stop-opacity:1;" />
        <stop offset="73%" style="stop-color:rgb(224, 251, 252);stop-opacity:1;" />
        <stop offset="80%" style="stop-color:rgb(238, 108, 77);stop-opacity:1;" />
        <stop offset="100%" style="stop-color:rgb(41, 50, 65);stop-opacity:1;" />
    </linearGradient>
    <style>
      #JoyText{
        fill: url(#J_gradient);
        stroke: #e0fbfc;
        stroke-width: 10px;
      }
      #socketText{
        fill: url(#s_gradient);
        stroke: #3d5a80;
        stroke-width: 10px;
      }
    </style>
  </defs>
  <!-- <rect class="bg" width="100%" height="100%" style="fill:#3a7170"/> -->
  <svg preserveAspectRatio="xMidYMid meet" width="100%" height="100%">
          <g transform="translate(-370, -200)">
              <path id="socketText" d="M446.2,392.833q4.812,9.259,4.814,16.107,0,18.7-25.735,18.7H403.8q-14.628,0-22.958,6.388t-8.331,17.681q0,16.293,23.513,16.292h38.694q25.918,0,43.323-15.644t17.4-38.972q0-20.921-16.107-43.323l-10.553-14.626q-8.7-12.219-8.7-23.883a40.817,40.817,0,0,1,.741-7.221,48.831,48.831,0,0,0,1.111-7.22,14.674,14.674,0,0,0-5.184-11.2,17.792,17.792,0,0,0-12.405-4.721q-13.516,0-22.587,17.958l-24.623,49.988q-5.372,10.74-5.369,17.218,0,6.852,6.017,12.127a20.077,20.077,0,0,0,13.608,5.276q15,0,23.142-18.328l3.518-8.517Zm88.312-43.323q-25.368,25.737-25.365,60.911,0,33.325,24.809,50.359Q544.511,468,574.688,468q18.511,0,28.789-2.87a56.868,56.868,0,0,0,19.9-10.46q14.44-11.664,23.513-31.2a92.645,92.645,0,0,0,9.071-39.342q0-26.287-17.31-43.323T594.5,323.776Q559.875,323.776,534.513,349.51Zm71.464,20.181q6.109,6.483,6.109,17.033,0,18.329-12.589,32.584-7.595,8.7-21.662,8.7-24.069,0-24.068-21.477,0-16.289,11.294-29.807t24.994-13.515Q599.865,363.211,605.977,369.691Zm188.75,91.922q8.423-6.389,8.424-17.5,0-16.476-23.513-16.478H744.646q-19.257,0-27.308-5.461t-8.053-18.607a45.383,45.383,0,0,1,9.905-28.511q9.9-12.776,21.939-12.775,12.774,0,12.774,12.96,0,1.853-.185,3.888v4.073q0,15.924,17.033,15.922,10.736,0,17.589-8.794t6.85-22.5q0-19.622-13.7-31.844t-35.547-12.219q-32.214,0-56.1,25.549T665.962,409.5q0,25.922,14.534,42.212T718.171,468h53.691Q786.3,468,794.727,461.613Zm155.8-92.108,4.258-3.147q13.7-10.179,13.7-22.587a16.545,16.545,0,0,0-5.184-12.4,17.929,17.929,0,0,0-12.96-5q-9.26,0-22.217,9.627l-41.656,30.919,47.21-116.268,2.037-5a34.36,34.36,0,0,0,2.962-12.775,16.385,16.385,0,0,0-5.554-12.4,18.858,18.858,0,0,0-13.33-5.184q-18.7,0-27.216,20.736l-2.036,5L811.3,436.341l-2.037,5a32.661,32.661,0,0,0-2.962,12.4,15.454,15.454,0,0,0,5.462,11.942,19.358,19.358,0,0,0,13.422,4.906q19.254,0,29.253-24.624l20.735-51.283,42.953,64.243,2.221,3.333q5.737,8.331,13.516,8.331,8.886,0,16.014-6.85T957,448.375q0-5.367-5.369-13.7l-28.7-44.989Zm104.048,44.249q22.4,0,33.7-6.85,20.355-12.033,20.36-37.028,0-20.733-14.72-33.418t-38.97-12.682q-33.33,0-57.485,25.92t-24.161,61.651q0,27.771,15.274,42.212T1033.09,468h52.4q14.8,0,23.05-6.3t8.24-17.588q0-16.476-23.33-16.478h-54.99q-20.925,0-20.92-13.885h37.03Zm-1.3-52.21q12.225,0,12.78,9.813,0.555,8.7-19.26,8.7h-20.36q9.81-18.51,26.84-18.514h0Zm169.96-49.8q4.815-10.736,4.82-17.774a16.259,16.259,0,0,0-5.46-12.311,18.514,18.514,0,0,0-13.06-5.092q-18.705,0-27.4,20.551l-2.03,5-9.82,24.253h-8.51q-14.82,0-23.05,6.387-8.25,6.387-8.24,17.866,0,16.107,20.73,16.107h2.78L1132.14,420.6l-3.51,8.146a41.359,41.359,0,0,0-3.34,15.182q0,11.107,8.24,17.588t22.31,6.48h33.14q14.82,0,23.05-6.3t8.24-17.588q0-16.476-23.51-16.478h-20.74l24.81-60.911h13.52q14.625,0,22.95-6.294t8.34-17.589q0-16.476-23.52-16.477h-5.74Z"/>
             <path id="JoyText"  d="M1204.55,575.429q9.615-24.252,9.62-41.471,0-27.216-20.08-45.267-20.1-18.051-50.08-18.051-40.92,0-71.28,30.085t-30.36,70.631q0,27.771,16.57,47.3t40.08,19.532q11.85,0,19.81-7.035a22.522,22.522,0,0,0,7.96-17.588q0-11.664-13.33-17.033-12.6-4.812-17.68-11.2-5.1-6.387-5.09-17.126,0-19.807,14.72-36.1t32.67-16.292a28.274,28.274,0,0,1,18.52,6.387q7.77,6.387,7.77,15.089,0,10.185-11.11,38.139L1110.13,682.81l-29.26.37q-55.35,0-86.826,17.589-24.813,13.885-38.324,35.639A88.258,88.258,0,0,0,942.2,783.9q0,34.25,23.05,57.209t57.486,22.957q36.465,0,60.91-23.235t46.84-79.7l13.7-34.065h36.29q16.11,0,25.18-6.943t9.07-19.162q0-18.142-25.55-18.144H1161.6ZM1083.1,753.534q-13.335,33.324-27.13,48.414t-31.01,15.089a30.411,30.411,0,0,1-22.96-10,34.282,34.282,0,0,1-9.438-24.438q0-15.552,11.108-28.419t30.36-19.718q20.745-7.407,59.62-7.405Zm176.99-144.965q-25.365,25.736-25.36,60.911,0,33.325,24.8,50.358,10.56,7.221,40.74,7.221,18.51,0,28.78-2.87a56.892,56.892,0,0,0,19.91-10.461q14.43-11.663,23.51-31.2a92.578,92.578,0,0,0,9.07-39.342q0-26.288-17.31-43.323t-44.15-17.032Q1285.445,582.835,1260.09,608.569Zm71.46,20.18q6.12,6.483,6.11,17.033,0,18.328-12.59,32.585-7.59,8.7-21.66,8.7-24.06,0-24.07-21.476,0-16.29,11.3-29.807,11.28-13.514,24.99-13.516Q1325.44,622.269,1331.55,628.749Zm211.62-7.591,2.22-5a34.5,34.5,0,0,0,2.78-12.4,17.426,17.426,0,0,0-5.46-13.052,18.832,18.832,0,0,0-13.61-5.277q-18.885,0-27.59,20.921l-1.85,5.184-24.81,60.541q-2.4,6.3-11.29,11.293a35.394,35.394,0,0,1-17.4,5q-12.045,0-11.48-9.072,0.18-3.145,4.44-13.885l18.14-44.249q4.815-12.032,4.82-17.4a17.386,17.386,0,0,0-5.46-13.145,19.026,19.026,0,0,0-13.61-5.184q-18.705,0-27.59,20.921l-2.03,5.184-20.18,49.8q-7.965,19.626-7.97,29.437,0,16.107,12.32,26.2,12.3,10.094,32.12,10.091,11.475,0,25.18-5.74l-5.37,13.33h-30.18q-38.325,0-57.95,9.072a65.75,65.75,0,0,0-27.49,23.791,60.812,60.812,0,0,0-10.46,34.158q0,26.288,19.25,44.063t47.58,17.774q46.665,0,71.1-46.285,14.07-26.292,19.44-42.212h29.99q14.805,0,23.05-6.295t8.24-17.588q0-16.48-23.51-16.478h-21.48Zm-129.69,190.88q-10.47,10.553-23.98,10.553-9.81,0-15.64-5.74t-5.83-15.181q0-26.661,42.58-26.66h25.92Q1423.93,801.484,1413.48,812.038Z"/>
          </g>
  </svg>
</svg>